<svg xmlns="http://www.w3.org/2000/svg" width="1200" height="400" viewBox="0 0 1200 400">
  <defs>
    <linearGradient id="bg" x1="0" x2="0" y1="0" y2="1">
      <stop offset="0" stop-color="#f7f7f7"/>
      <stop offset="1" stop-color="#e2e2e2"/>
    </linearGradient>
  </defs>
  <rect width="1200" height="400" fill="url(#bg)"/>
  <path d="M0 285 C160 230 330 250 470 215 C650 170 850 195 1200 130 L1200 400 L0 400 Z" fill="#d7d7d7"/>
  <path d="M0 330 C210 278 395 330 590 285 C770 242 940 270 1200 220 L1200 400 L0 400 Z" fill="#969696"/>
  <path d="M450 400 C520 315 650 280 780 400 Z" fill="#eeeeee"/>
  <rect x="104" y="105" width="145" height="170" rx="10" fill="#fffdf8"/>
  <rect x="281" y="74" width="175" height="205" rx="10" fill="#f8fff9"/>
  <rect x="742" y="95" width="170" height="190" rx="10" fill="#fffdf8"/>
  <rect x="944" y="135" width="145" height="150" rx="10" fill="#f8fff9"/>
  <g fill="#555555" opacity=".85">
    <rect x="132" y="136" width="34" height="30" rx="4"/>
    <rect x="188" y="136" width="34" height="30" rx="4"/>
    <rect x="132" y="191" width="34" height="30" rx="4"/>
    <rect x="188" y="191" width="34" height="30" rx="4"/>
    <rect x="319" y="115" width="36" height="32" rx="4"/>
    <rect x="383" y="115" width="36" height="32" rx="4"/>
    <rect x="319" y="178" width="36" height="32" rx="4"/>
    <rect x="383" y="178" width="36" height="32" rx="4"/>
    <rect x="782" y="132" width="38" height="32" rx="4"/>
    <rect x="848" y="132" width="38" height="32" rx="4"/>
    <rect x="782" y="195" width="38" height="32" rx="4"/>
    <rect x="848" y="195" width="38" height="32" rx="4"/>
  </g>
  <circle cx="602" cy="171" r="54" fill="#4d4d4d"/>
  <rect x="590" y="205" width="24" height="96" fill="#333333"/>
  <circle cx="555" cy="198" r="42" fill="#777777"/>
  <circle cx="650" cy="198" r="42" fill="#777777"/>
  <text x="600" y="82" fill="#111111" font-family="Georgia, serif" font-size="36" font-weight="800" text-anchor="middle">Clean, Green, Connected</text>
</svg>
